<svg width="46" height="45" viewBox="0 0 46 45" fill="none" xmlns="http://www.w3.org/2000/svg">
<g clip-path="url(#clip0_9_9369)">
<path d="M35.8288 43.089C35.4908 43.246 35.1239 43.3824 34.7643 43.4793C30.5722 44.6073 26.2938 42.9075 23.6203 39.5733C21.1843 36.5346 20.4382 32.4498 21.527 28.6911C18.4555 28.7054 15.2072 28.3697 12.2706 27.443C10.0626 26.7456 8.52242 25.8114 8.36928 23.2688L8.37468 14.27L4.9989 12.8595V18.694C4.9989 18.7465 5.29641 18.8687 5.36994 18.9328C6.6173 20.0172 6.03983 22.3278 6.14642 23.8795C6.23952 25.2259 7.21974 27.2751 7.08953 28.5212C7.0187 29.2009 6.4129 29.5905 5.77673 29.6499C4.94156 29.727 3.02363 29.74 2.20599 29.6396C1.38903 29.5393 0.954582 28.9306 1.02677 28.1199C1.14482 26.7831 1.84238 25.2211 1.96178 23.8802C2.06567 22.7133 1.72162 20.705 2.15202 19.7053C2.34429 19.259 2.69711 18.9083 3.14573 18.7315C3.19161 16.5369 3.21185 14.2877 3.13561 12.1027C1.89162 11.5445 -0.144366 11.2129 0.00809692 9.41338C0.0546454 8.85996 0.431081 8.33861 0.889819 8.05337C7.30069 5.37155 13.7999 2.87807 20.2459 0.269263C21.4649 -0.087631 22.744 -0.119021 23.9408 0.353198L42.7092 7.84524C44.5718 8.51603 44.5192 10.7018 42.6883 11.3705L35.9057 14.1656L35.8922 21.1431C41.2561 22.9064 44.897 28.7409 43.5869 34.4232C43.2044 34.1339 42.3524 33.6787 41.9004 33.5361C42.3888 30.0054 40.7974 26.3143 37.9012 24.3088C30.4413 19.1416 20.8915 26.0168 23.2472 34.8327C24.5891 39.8524 29.8018 42.9948 34.8169 41.5202C35.0314 42.0265 35.4706 42.6741 35.8288 43.0897V43.089ZM41.8329 9.65086L41.6791 9.50005C35.6905 7.32661 29.8713 4.65844 23.9063 2.43383C22.4188 1.87904 21.9736 1.76439 20.4307 2.29871L2.2323 9.61742L20.0934 17.0044C21.2531 17.4657 22.5166 17.6151 23.7019 17.1409C29.7499 14.6549 35.7539 12.059 41.8322 9.65086H41.8329ZM34.1423 14.906L24.1748 19.0516C22.8755 19.5449 21.4285 19.5265 20.113 19.1007L10.1934 14.9749V23.6755C10.1934 24.1689 11.0043 24.8274 11.4064 25.0416C13.462 26.1362 18.3205 26.6985 20.681 26.7831C21.048 26.7961 21.8474 26.8391 22.1665 26.7783C22.3008 26.7531 22.3574 26.6712 22.4337 26.5709C22.773 26.1239 23.0388 25.5234 23.4179 25.0416C24.6815 23.4353 26.5947 22.0125 28.5079 21.3192C30.3368 20.6566 32.2122 20.5146 34.1423 20.7064V14.906ZM4.39175 20.6381H3.71713V22.9583H4.39175V20.6381ZM2.90759 27.8715H5.03263C5.05692 27.8715 5.14125 27.7999 5.19184 27.7931C5.29506 27.6211 4.62179 25.4757 4.61437 25.088C4.60223 24.9966 4.56782 25.0082 4.49564 25.0007C4.33508 24.983 3.61189 24.9761 3.54578 25.0703L2.90759 27.8709V27.8715Z" fill="#0C3B79" style="fill:#0C3B79;fill:color(display-p3 0.0471 0.2314 0.4745);fill-opacity:1;"/>
<path d="M41.9005 33.5354C42.3525 33.678 43.2045 34.1332 43.587 34.4225C46.3246 36.4922 46.8468 40.3082 44.5659 42.9532C42.3107 45.5688 38.1146 45.7435 35.829 43.089C35.4707 42.6734 35.0316 42.0258 34.817 41.5194C34.5593 40.9114 34.3731 40.0653 34.3448 39.404C34.3165 38.7428 34.415 38.0147 34.6147 37.3568C35.0903 35.7887 36.2479 34.486 37.7179 33.8084C38.3028 33.5388 39.0314 33.3061 39.6743 33.2624C40.3172 33.2188 41.3041 33.3477 41.9005 33.5354ZM42.623 36.553C42.5232 36.5762 42.4436 36.6369 42.3714 36.7072L39.538 39.5767C39.4651 39.6299 39.4125 39.6115 39.3383 39.5767C39.0455 39.4402 38.5416 38.6104 38.1618 38.4432C37.3934 38.1054 36.6284 39.0437 37.0534 39.7691C37.1667 39.9629 38.7305 41.5461 38.9369 41.6853C39.6864 42.1916 40.1904 41.5167 40.6882 41.009C41.7049 39.9731 42.6905 38.8902 43.6923 37.8379C44.0323 37.0873 43.415 36.3673 42.623 36.5523V36.553Z" fill="#FD8957" style="fill:#FD8957;fill:color(display-p3 0.9922 0.5373 0.3412);fill-opacity:1;"/>
<path d="M39.6739 33.2623C39.031 33.306 38.3024 33.5387 37.7175 33.8083C37.6764 33.3838 37.8302 32.9614 37.8551 32.5486C37.9064 31.6901 37.7189 30.7327 37.3924 29.9404C37.3296 29.7876 36.9619 29.0001 36.8115 29.0342C36.6671 29.067 35.5291 30.3867 35.2997 30.5771C37.165 33.7878 33.174 37.2243 30.3318 34.8994C27.7278 32.769 29.4339 28.4405 32.8879 28.9018C33.1659 28.9387 33.771 29.2792 33.9579 29.2273C34.1582 29.1721 35.2761 27.8748 35.5581 27.6687C31.1218 24.9862 25.6689 28.5709 27.1753 33.8615C28.0914 37.0804 31.5826 38.6274 34.6136 37.3581C34.4139 38.0159 34.3141 38.7167 34.3438 39.4053C29.9608 40.6425 25.6662 37.7075 25.1096 33.1532C24.379 27.1679 30.543 22.8763 35.8293 25.6536C36.0141 25.7505 36.7488 26.2923 36.8068 26.2917C36.8452 26.2917 37.2116 25.889 37.4274 25.8399C38.2761 25.6475 38.9629 26.2261 38.6768 27.1037C38.6094 27.3105 38.2498 27.5903 38.2653 27.6892C38.2768 27.7656 38.8252 28.5518 38.919 28.7374C39.6071 30.1015 39.8689 31.744 39.6732 33.263L39.6739 33.2623ZM32.5904 30.6699C31.9988 30.6249 31.0699 31.1899 30.9761 31.8C30.597 34.2634 34.1643 34.4702 33.8722 31.9665C33.6287 32.0743 33.5099 32.3998 33.3305 32.5438C32.6437 33.0965 31.6426 32.5581 31.8807 31.6908C31.9934 31.28 32.442 31.0425 32.5904 30.6699Z" fill="#0C3B79" style="fill:#0C3B79;fill:color(display-p3 0.0471 0.2314 0.4745);fill-opacity:1;"/>
<path d="M42.6229 36.5526C43.4149 36.3684 44.0322 37.0876 43.6922 37.8383C42.6904 38.8905 41.7048 39.9728 40.6881 41.0094C40.1902 41.5164 39.687 42.192 38.9368 41.6856C38.7304 41.5464 37.1666 39.9632 37.0533 39.7694C36.6283 39.0447 37.3926 38.1064 38.1617 38.4435C38.5415 38.61 39.0454 39.4398 39.3382 39.577C39.4124 39.6118 39.465 39.6302 39.5379 39.577L42.3713 36.7075C42.4428 36.6372 42.5231 36.5765 42.6229 36.5533V36.5526Z" fill="#0C3B79" style="fill:#0C3B79;fill:color(display-p3 0.0471 0.2314 0.4745);fill-opacity:1;"/>
</g>
<defs>
<clipPath id="clip0_9_9369">
<rect width="46" height="45" fill="white" style="fill:white;fill-opacity:1;"/>
</clipPath>
</defs>
</svg>
