<svg width="39" height="55" viewBox="0 0 39 55" fill="none" xmlns="http://www.w3.org/2000/svg">
<g clip-path="url(#clip0_9_9399)">
<path d="M22.2327 50.5763L3.70867 50.5751C1.56817 50.3051 0.0626545 48.4714 0 46.3581V11.9903C0.115067 9.69924 1.90434 7.94098 4.19002 7.77275C5.70698 7.6614 7.33419 7.87632 8.862 7.74582C9.1319 6.70894 9.9687 5.72774 10.9947 5.37512C11.955 5.04586 12.9894 5.28054 13.9828 5.17158C14.0918 5.09615 14.0238 4.61603 14.04 4.4502C14.4292 0.445766 19.2307 -1.38014 22.3213 1.1887C23.5111 2.17769 24.1515 3.65338 24.0997 5.19852C25.1028 5.25599 26.1709 5.04107 27.1276 5.39249C28.1927 5.78341 28.9536 6.70834 29.2573 7.77635L34.0039 7.77874C36.2246 8.01342 37.8861 9.57472 38.0795 11.8107L38.0771 39.082C37.8373 38.3888 37.1475 37.116 36.6915 36.5078V12.2328C36.8282 10.9762 35.4046 9.20894 34.1311 9.20894H29.2814V11.2743C29.2814 12.2543 27.7427 13.6007 26.7234 13.5217L11.1838 13.5127C10.2416 13.4905 8.85778 12.2657 8.85778 11.3342V9.20894H4.00808C2.82307 9.20894 1.45491 10.693 1.44889 11.8742L1.44527 46.5383C1.54106 47.9015 2.48148 48.909 3.82795 49.1395C9.77049 49.3215 15.857 48.8994 21.7833 49.1371C22.0887 49.1491 22.3954 49.2443 22.7141 49.2C22.552 49.6579 22.3948 50.1189 22.2321 50.5769L22.2327 50.5763ZM18.6662 1.44433C17.1643 1.5922 15.7293 2.83921 15.501 4.34543C15.3708 5.2057 15.7859 6.50539 14.4907 6.6341C13.09 6.77299 11.0917 6.13422 10.3952 7.83262C10.1832 8.35046 10.1753 10.2536 10.244 10.8558C10.3169 11.497 10.8254 11.9855 11.4766 12.0256H26.6029C27.224 12.0035 27.8054 11.5335 27.8909 10.9103C27.9758 10.2889 27.9493 8.40793 27.7331 7.84519C27.0619 6.1025 24.9913 6.79275 23.5888 6.6353C22.4291 6.50539 22.7195 5.42781 22.6544 4.63039C22.4966 2.68954 20.5838 1.25575 18.6668 1.44433H18.6662Z" fill="#0C3B79" style="fill:#0C3B79;fill:color(display-p3 0.0471 0.2314 0.4745);fill-opacity:1;"/>
<path d="M36.6939 36.505C37.15 37.1133 37.8398 38.386 38.0796 39.0793C39.0417 41.8606 38.3043 45.1868 36.4512 47.4288C36.3258 47.5808 35.9306 47.8802 35.9089 48.0328L35.9228 48.1939L37.4627 52.4737C37.5434 52.9867 37.3217 53.3986 36.7873 53.4501C35.8885 53.5369 34.7703 53.1753 33.8468 53.2819C33.0774 53.6884 32.2919 54.5061 31.5322 54.8731C31.2014 55.0329 30.9496 55.0629 30.6484 54.815C30.2797 54.5121 29.8447 52.77 29.5875 52.2174C29.5598 52.1582 29.5507 52.0768 29.4652 52.0702C29.4652 52.1642 29.4399 52.2546 29.4067 52.342C29.1796 52.946 28.8187 54.1332 28.5133 54.6271C28.1603 55.197 27.706 54.9988 27.2524 54.718C26.5873 54.3062 25.9372 53.7039 25.2649 53.2807C24.3148 53.1621 23.0642 53.5878 22.1484 53.4441C21.6695 53.3687 21.5117 52.8161 21.5767 52.4036C21.6424 51.984 22.0701 51.0405 22.2358 50.5741C22.3985 50.1162 22.5557 49.6552 22.7178 49.1972C22.8148 48.9236 23.2051 48.2429 23.1298 47.9831C23.0949 47.864 22.5937 47.3964 22.4786 47.2498C18.6326 42.3378 20.9297 35.0461 26.9494 33.3172C30.5333 32.2875 34.4649 33.5321 36.6945 36.5056L36.6939 36.505ZM28.9103 34.4277C23.1672 34.8414 20.0851 41.4308 23.4515 46.1027C26.8801 50.8615 34.4384 49.9114 36.5144 44.4385C38.4669 39.293 34.3607 34.035 28.9103 34.4277ZM28.5007 50.5741C27.0204 50.4059 25.5842 49.8755 24.3745 49.0176L23.2594 51.9504C23.9775 51.99 24.9896 51.6996 25.6734 51.8571C26.0348 51.9403 27.3915 53.125 27.5657 53.0891L28.5013 50.5747L28.5007 50.5741ZM35.7903 51.9498L34.6745 49.0164C33.4365 49.8659 31.9991 50.437 30.4887 50.5735L31.393 53.1472C31.481 53.2292 33.1058 51.9085 33.4245 51.8439C33.7142 51.7846 34.0769 51.8594 34.3769 51.8277L35.7903 51.9492V51.9498Z" fill="#FD8957" style="fill:#FD8957;fill:color(display-p3 0.9922 0.5373 0.3412);fill-opacity:1;"/>
<path d="M5.58791 17.0639C7.23982 17.1561 9.1297 16.8909 10.7539 17.0502C11.5835 17.1316 12.2691 17.8153 12.3504 18.6366C12.5004 20.1476 12.2395 21.8891 12.3516 23.4259C12.2239 24.1922 11.6618 24.874 10.8756 25.0123C9.22549 24.8998 7.37839 25.1614 5.75178 25.0147C4.95896 24.9429 4.29807 24.2676 4.21855 23.4852C4.06191 21.9448 4.3288 20.1506 4.22457 18.5833C4.35591 17.8332 4.83305 17.2555 5.58791 17.0645V17.0639ZM10.8292 23.5001C10.8997 23.4253 10.8991 23.2876 10.9075 23.1888C11.0003 22.1136 11.0063 20.0034 10.9075 18.9329C10.8762 18.5935 10.8027 18.5157 10.4557 18.484C9.05741 18.357 7.47056 18.5869 6.0518 18.484C5.86444 18.4953 5.67286 18.6839 5.66021 18.8731C5.76865 20.2578 5.52707 21.8293 5.66021 23.19C5.69033 23.5007 5.86926 23.6276 6.17289 23.6384C7.53261 23.5223 9.12368 23.7833 10.4545 23.6372C10.5479 23.627 10.7714 23.5618 10.8292 23.5007V23.5001Z" fill="#0C3B79" style="fill:#0C3B79;fill:color(display-p3 0.0471 0.2314 0.4745);fill-opacity:1;"/>
<path d="M11.7144 34.6783C11.3987 34.9543 11.1204 35.077 10.695 35.1321C9.12385 35.0249 7.36109 35.2763 5.8134 35.1351C4.94106 35.0554 4.3609 34.3694 4.21933 33.5462C4.31994 32.0166 4.08679 30.3242 4.21752 28.8144C4.29042 27.9727 4.83864 27.2938 5.69532 27.1699C7.32555 27.2825 9.15277 27.022 10.7589 27.1675C11.6246 27.2459 12.2686 27.9775 12.3524 28.8168C12.465 29.9441 12.4602 32.3555 12.3554 33.4882C12.3084 34 12.0849 34.3544 11.715 34.6777L11.7144 34.6783ZM5.94895 28.6193C5.7869 28.7049 5.67062 28.8707 5.664 29.0545C5.75858 30.4075 5.5429 31.9155 5.66219 33.2493C5.72605 33.9605 6.26524 33.6785 6.71647 33.6941C7.82256 33.733 9.31181 33.8767 10.3944 33.7552C10.7679 33.7132 10.936 33.5558 10.9697 33.1894C11.0914 31.8784 10.8722 30.3853 10.9679 29.0545C10.9607 28.8078 10.7661 28.6127 10.5161 28.6055L5.94895 28.6193Z" fill="#0C3B79" style="fill:#0C3B79;fill:color(display-p3 0.0471 0.2314 0.4745);fill-opacity:1;"/>
<path d="M5.6539 37.2995C7.21183 37.0756 9.21316 37.4336 10.8187 37.2845C11.6579 37.3911 12.2718 38.0358 12.3549 38.8709C12.4694 40.0186 12.4579 42.3833 12.3579 43.5423C12.2772 44.475 11.5711 45.1587 10.6379 45.2455C9.45956 45.355 7.12146 45.3502 5.93765 45.2485C4.97916 45.1664 4.37069 44.5223 4.22369 43.5992C4.33514 42.0899 4.06826 40.3604 4.23032 38.8781C4.30924 38.155 4.90265 37.4078 5.6545 37.3001L5.6539 37.2995ZM5.95272 38.674C5.70631 38.7213 5.68402 38.9578 5.66595 39.1673C5.55329 40.5089 5.75571 42.0031 5.66715 43.3615C5.68041 43.6417 5.90392 43.8254 6.17743 43.8123C7.55763 43.7123 9.1011 43.9356 10.4608 43.8123C10.8187 43.78 10.9404 43.6596 10.9729 43.3034C11.0651 42.2977 11.0663 40.2323 10.9729 39.2272C10.9416 38.8883 10.8554 38.6584 10.4614 38.6578L5.95332 38.674H5.95272Z" fill="#0C3B79" style="fill:#0C3B79;fill:color(display-p3 0.0471 0.2314 0.4745);fill-opacity:1;"/>
<path d="M33.3603 20.4238C33.6922 20.8147 33.4747 21.5534 32.9289 21.6037H15.2146C14.4543 21.4547 14.4169 20.4597 15.1236 20.1939C21.0957 20.158 27.0948 20.1244 33.0627 20.2106C33.1344 20.2879 33.3037 20.3573 33.3603 20.4238Z" fill="#0C3B79" style="fill:#0C3B79;fill:color(display-p3 0.0471 0.2314 0.4745);fill-opacity:1;"/>
<path d="M14.8461 30.3615C14.9208 30.2897 15.0431 30.2472 15.1377 30.2023C19.0922 30.1077 23.0653 30.1903 27.0264 30.1604C27.7216 30.3022 27.9283 31.1811 27.2807 31.5534C23.2093 31.6289 19.0928 31.6289 15.0215 31.5534C14.5678 31.2924 14.4588 30.7351 14.8455 30.3621L14.8461 30.3615Z" fill="#0C3B79" style="fill:#0C3B79;fill:color(display-p3 0.0471 0.2314 0.4745);fill-opacity:1;"/>
<path d="M15.1706 40.2315C15.5387 40.1572 18.1485 40.1572 18.5166 40.2315C19.298 40.3895 19.2486 41.5371 18.5268 41.6509C18.0864 41.7203 15.5821 41.7239 15.1706 41.6407C14.444 41.494 14.4465 40.3775 15.1706 40.2315Z" fill="#0C3B79" style="fill:#0C3B79;fill:color(display-p3 0.0471 0.2314 0.4745);fill-opacity:1;"/>
<path d="M19.9173 3.7231C21.4132 4.74023 19.8215 7.19233 18.1961 6.06147C16.6563 4.98927 18.2612 2.59703 19.9173 3.7231Z" fill="#0C3B79" style="fill:#0C3B79;fill:color(display-p3 0.0471 0.2314 0.4745);fill-opacity:1;"/>
<path d="M32.7616 38.018C33.4122 37.8845 34.0749 38.4089 34.0815 39.062C34.0888 39.7655 32.7423 40.5958 32.3579 41.149C31.1434 42.1385 30.0162 43.7537 28.8035 44.6811C28.4366 44.9612 28.0089 44.9882 27.6275 44.7092C27.0859 44.3135 25.778 42.9497 25.3063 42.4061C24.8876 41.9236 24.6454 41.4225 25.1286 40.8496C26.1804 39.6026 27.4197 41.9051 28.2215 42.3702L32.4152 38.2125C32.5104 38.1359 32.6417 38.0431 32.7616 38.0186V38.018Z" fill="#FD8957" style="fill:#FD8957;fill:color(display-p3 0.9922 0.5373 0.3412);fill-opacity:1;"/>
<path d="M10.0299 21.0835C9.67625 21.487 8.76655 22.4461 8.37617 22.7634C7.98578 23.0806 7.72673 22.9561 7.38514 22.6789C7.1038 22.4509 6.36098 21.7331 6.32965 21.3906C6.23929 20.4112 7.49418 20.5717 7.8683 21.2398C8.28038 20.9363 9.05994 19.8233 9.55576 19.8006C10.16 19.7731 10.4986 20.4699 10.1787 20.9656C10.1401 21.0255 10.066 21.0416 10.0293 21.0835H10.0299Z" fill="#0C3B79" style="fill:#0C3B79;fill:color(display-p3 0.0471 0.2314 0.4745);fill-opacity:1;"/>
</g>
<defs>
<clipPath id="clip0_9_9399">
<rect width="38.617" height="55" fill="white" style="fill:white;fill-opacity:1;"/>
</clipPath>
</defs>
</svg>
