<svg width="49" height="44" viewBox="0 0 49 44" fill="none" xmlns="http://www.w3.org/2000/svg">
<g clip-path="url(#clip0_9_9433)">
<path d="M3.42834 1.41411C3.51711 1.00963 4.11436 0.698381 4.50029 0.6514C5.34919 0.547894 7.22529 0.776194 8.16003 0.86355C13.8756 1.3987 19.9852 2.74794 24.4491 6.51818C28.3517 3.12159 33.5736 1.75473 38.6193 1.09258C40.2892 0.873827 42.0582 0.677827 43.7428 0.63892C44.1441 0.629377 44.7128 0.586067 45.0554 0.800418C45.2682 0.933287 45.6174 1.55432 45.6174 1.78042V3.35869H47.8552C48.1282 3.35869 48.6256 4.01423 48.6256 4.2763V33.8965L48.0005 31.6223C47.6637 30.6717 47.0562 29.8657 46.5668 29.0193L46.539 5.55654C46.4362 5.40899 45.7517 5.52277 45.5433 5.48753V28.2448C45.2733 27.9673 45.029 27.6568 44.7377 27.3999C44.4464 27.143 43.4163 26.566 43.4163 26.2261V2.84557C43.0648 2.98725 42.6591 2.89769 42.2798 2.91971C36.8613 3.23023 29.7751 4.55158 25.7324 8.38642C25.5482 8.56113 25.4132 8.8577 25.1843 9.01259C24.0962 9.75108 23.5173 8.59637 22.8342 7.98635C21.2964 6.61361 19.0681 5.56681 17.1333 4.88118C13.4024 3.55983 9.41908 3.11645 5.48419 2.84557V30.2268C5.77401 30.1843 6.04401 30.3017 6.32796 30.3068C10.4903 30.381 14.7238 31.049 18.636 32.5208C20.7131 33.3026 22.6897 34.3032 24.4491 35.6605C26.111 34.624 27.712 33.4223 29.6225 32.8703C29.2168 34.1446 29.0869 35.3742 29.4032 36.6875H27.7523C27.4236 36.6875 26.4764 37.5933 26.1279 37.7783C25.9364 37.8804 24.9972 38.2929 24.8197 38.3047C23.0676 38.4236 22.4997 37.2997 21.077 36.686L1.4099 36.6904C0.62703 36.6111 0.274115 36.0231 0.268979 35.256C0.20588 25.5089 0.339415 15.5334 0.278517 5.7474C0.461945 5.03093 0.0562028 4.02597 0.792114 3.54735C0.849344 3.50992 1.1619 3.3609 1.19272 3.3609H3.43054C3.51345 2.80666 3.31901 1.9243 3.43054 1.41558L3.42834 1.41411ZM3.42834 5.48827H2.40114V34.4845H17.5156L16.4715 34.0976C13.0928 33.0597 9.57243 32.4827 6.03668 32.2786C5.34846 32.239 4.36308 32.4628 3.8216 31.9622C3.72842 31.8763 3.42907 31.3926 3.42907 31.2905V5.48827H3.42834Z" fill="#0C3B79" style="fill:#0C3B79;fill:color(display-p3 0.0471 0.2314 0.4745);fill-opacity:1;"/>
<path d="M39.0713 9.76795C40.2841 9.73638 41.0898 10.259 41.3554 11.4776L41.3642 22.9256C41.2945 23.6186 40.9988 24.1662 40.4015 24.5318C39.6664 24.9818 37.7859 25.0537 36.8482 25.1609C33.6477 25.5272 30.4334 25.7827 27.2373 26.1886C26.1602 26.0903 25.2401 25.3635 25.1433 24.2462C24.8373 20.7094 25.3796 16.7388 25.1433 13.1565C25.1983 12.2249 26.0157 11.4468 26.8903 11.2339C29.0914 10.6988 31.6814 10.7127 33.9221 10.2671C35.62 10.2055 37.3816 9.81126 39.0706 9.76721L39.0713 9.76795ZM39.2335 11.9482L27.2006 13.3429V23.9871L39.2335 22.6658V11.9482Z" fill="#0C3B79" style="fill:#0C3B79;fill:color(display-p3 0.0471 0.2314 0.4745);fill-opacity:1;"/>
<path d="M38.411 27.018C44.7172 26.6187 49.1151 33.3142 46.1685 38.9637C43.3423 44.3805 35.8247 44.9282 32.2764 39.9401C28.5367 34.6811 32.002 27.424 38.411 27.0188V27.018ZM43.2278 31.0746C39.0955 26.8551 32.1297 30.3449 33.0087 36.1243C33.5502 39.6875 36.9854 41.8714 40.4632 40.9634C44.8552 39.8167 46.4312 34.3456 43.2278 31.0746Z" fill="#FD8957" style="fill:#FD8957;fill:color(display-p3 0.9922 0.5373 0.3412);fill-opacity:1;"/>
<path d="M8.90997 11.083C9.13596 11.0316 9.59893 11.0536 9.84766 11.0683C12.0943 11.2019 15.327 11.9771 17.4819 12.6796C18.1048 12.8829 20.1966 13.6045 20.6237 13.9408C21.2899 14.4649 21.0103 15.7114 20.1145 15.8325C19.5128 15.914 18.5986 15.3876 17.994 15.1769C15.0863 14.1639 12.0965 13.4401 9.01783 13.1465C8.33401 12.9248 7.96936 12.1496 8.3839 11.5117C8.47268 11.3751 8.74782 11.1197 8.90924 11.083H8.90997Z" fill="#0C3B79" style="fill:#0C3B79;fill:color(display-p3 0.0471 0.2314 0.4745);fill-opacity:1;"/>
<path d="M8.98479 16.6633C9.20344 16.6186 9.54388 16.6347 9.77426 16.6472C12.1001 16.7771 15.5522 17.6602 17.7739 18.4068C18.413 18.6219 20.0257 19.1453 20.5209 19.4756C21.2935 19.9924 21.0206 21.2822 20.1144 21.4106C19.4233 21.509 18.1459 20.8315 17.4261 20.5899C14.6197 19.6503 11.7956 19.0557 8.85859 18.6644C8.01263 18.3099 8.07572 16.8476 8.98552 16.6626L8.98479 16.6633Z" fill="#0C3B79" style="fill:#0C3B79;fill:color(display-p3 0.0471 0.2314 0.4745);fill-opacity:1;"/>
<path d="M35.6061 17.193C36.2884 17.6819 36.5181 18.0775 35.9693 18.8483L32.0432 21.3068C31.3234 21.6386 30.5904 21.1937 30.5024 20.4259C30.3857 19.4077 30.4077 17.0594 30.4994 16.0184C30.5728 15.1882 31.2001 14.7411 32.0102 15.0267C33.1401 15.8026 34.5033 16.4024 35.6061 17.1922V17.193Z" fill="#0C3B79" style="fill:#0C3B79;fill:color(display-p3 0.0471 0.2314 0.4745);fill-opacity:1;"/>
<path d="M37.0859 31.8597C37.5577 31.7738 37.813 31.9683 38.2078 32.171C39.2871 32.7252 40.9643 33.6868 41.9416 34.3813C42.5895 34.8415 42.7076 35.4861 42.0451 36.0139C41.362 36.5578 38.9121 38.0297 38.1095 38.3894C37.3479 38.73 36.4718 38.5421 36.372 37.6054C36.2055 36.0491 36.4931 34.2058 36.3772 32.618C36.4667 32.2664 36.7103 31.9287 37.0867 31.8604L37.0859 31.8597Z" fill="#0C3B79" style="fill:#0C3B79;fill:color(display-p3 0.0471 0.2314 0.4745);fill-opacity:1;"/>
</g>
<defs>
<clipPath id="clip0_9_9433">
<rect width="48.375" height="42.75" fill="white" style="fill:white;fill-opacity:1;" transform="translate(0.25 0.625)"/>
</clipPath>
</defs>
</svg>
